<svg width="64" height="64" viewBox="0 0 64 64" fill="none" xmlns="http://www.w3.org/2000/svg">
<g style="mix-blend-mode:hard-light" filter="url(#filter0_f_14_1078)">
<path d="M32.4788 38.7527L32 38.2739L31.5212 38.7527L15.2504 55.0235C13.5179 56.756 10.709 56.756 8.97646 55.0235C7.24396 53.291 7.24396 50.4821 8.97646 48.7496L25.2473 32.4787L25.7261 32L25.2473 31.5212L8.97652 15.2504C7.24403 13.5179 7.24403 10.709 8.97653 8.97646C10.709 7.24396 13.518 7.24396 15.2505 8.97646L31.5212 25.2472L32 25.726L32.4788 25.2472L48.7495 8.97646C50.482 7.24396 53.291 7.24396 55.0235 8.97646C56.756 10.709 56.756 13.5179 55.0235 15.2504L38.7527 31.5212L38.2739 32L38.7527 32.4787L55.0235 48.7496C56.756 50.4821 56.756 53.291 55.0235 55.0235C53.291 56.756 50.4821 56.756 48.7496 55.0235L32.4788 38.7527Z" stroke="#FF5C00" stroke-width="1.35417"/>
</g>
<g style="mix-blend-mode:hard-light" filter="url(#filter1_f_14_1078)">
<path d="M32.6261 38.6054L32 37.9793L31.3739 38.6054L15.1031 54.8762C13.4519 56.5273 10.7749 56.5273 9.12377 54.8762C7.47263 53.2251 7.47263 50.548 9.12377 48.8969L25.3946 32.626L26.0207 32L25.3946 31.3739L9.12384 15.1031C7.4727 13.4519 7.4727 10.7749 9.12384 9.12377C10.775 7.47263 13.452 7.47263 15.1031 9.12377L31.3739 25.3946L32 26.0206L32.6261 25.3946L48.8969 9.12377C50.548 7.47263 53.225 7.47263 54.8762 9.12377C56.5273 10.7749 56.5273 13.4519 54.8762 15.1031L38.6054 31.3739L37.9793 32L38.6054 32.626L54.8762 48.8969C56.5274 50.548 56.5274 53.2251 54.8762 54.8762C53.2251 56.5273 50.5481 56.5273 48.8969 54.8762L32.6261 38.6054Z" stroke="#FF0000" stroke-width="1.77083"/>
</g>
<g style="mix-blend-mode:hard-light" filter="url(#filter2_ddi_14_1078)">
<path d="M32.4788 38.7527L32 38.2739L31.5212 38.7527L15.2504 55.0235C13.5179 56.756 10.709 56.756 8.97646 55.0235C7.24396 53.291 7.24396 50.4821 8.97646 48.7496L25.2473 32.4787L25.7261 32L25.2473 31.5212L8.97652 15.2504C7.24403 13.5179 7.24403 10.709 8.97653 8.97646C10.709 7.24396 13.518 7.24396 15.2505 8.97646L31.5212 25.2472L32 25.726L32.4788 25.2472L48.7495 8.97646C50.482 7.24396 53.291 7.24396 55.0235 8.97646C56.756 10.709 56.756 13.5179 55.0235 15.2504L38.7527 31.5212L38.2739 32L38.7527 32.4787L55.0235 48.7496C56.756 50.4821 56.756 53.291 55.0235 55.0235C53.291 56.756 50.4821 56.756 48.7496 55.0235L32.4788 38.7527Z" stroke="#FF0000" stroke-opacity="0.2" stroke-width="1.35417"/>
</g>
<g filter="url(#filter3_f_14_1078)">
<path d="M32.2946 38.9368L32 38.6422L31.7054 38.9368L15.4345 55.2077C13.6003 57.0419 10.6265 57.0419 8.79231 55.2077C6.95812 53.3735 6.95812 50.3996 8.79231 48.5654L25.0632 32.2946L25.3578 32L25.0632 31.7053L8.79238 15.4345C6.95819 13.6003 6.95819 10.6265 8.79238 8.79231C10.6266 6.95812 13.6004 6.95812 15.4346 8.79232L31.7054 25.0631L32 25.3577L32.2946 25.0631L48.5654 8.79232C50.3996 6.95812 53.3734 6.95812 55.2076 8.79231C57.0418 10.6265 57.0418 13.6003 55.2076 15.4345L38.9368 31.7053L38.6422 32L38.9368 32.2946L55.2077 48.5654C57.0419 50.3996 57.0419 53.3735 55.2077 55.2077C53.3735 57.0419 50.3997 57.0419 48.5655 55.2077L32.2946 38.9368Z" stroke="#FF9983" stroke-width="0.833333"/>
</g>
<g filter="url(#filter4_f_14_1078)">
<path d="M32.1473 39.0841L32 38.9368L31.8527 39.0841L15.5818 55.355C13.6663 57.2705 10.5606 57.2705 8.645 55.355C6.72944 53.4394 6.72944 50.3337 8.645 48.4181L24.9158 32.1473L25.0632 32L24.9158 31.8526L8.64507 15.5819C6.72951 13.6663 6.72951 10.5606 8.64507 8.645C10.5606 6.72944 13.6664 6.72944 15.5819 8.645L31.8527 24.9158L32 25.0631L32.1473 24.9158L48.4181 8.645C50.3336 6.72944 53.4394 6.72944 55.3549 8.645C57.2705 10.5606 57.2705 13.6663 55.3549 15.5819L39.0842 31.8526L38.9368 32L39.0842 32.1473L55.355 48.4181C57.2706 50.3337 57.2706 53.4394 55.355 55.355C53.4394 57.2705 50.3337 57.2705 48.4182 55.355L32.1473 39.0841Z" stroke="white" stroke-width="0.416667"/>
</g>
<defs>
<filter id="filter0_f_14_1078" x="0.750002" y="0.750002" width="62.5" height="62.5" filterUnits="userSpaceOnUse" color-interpolation-filters="sRGB">
<feFlood flood-opacity="0" result="BackgroundImageFix"/>
<feBlend mode="normal" in="SourceGraphic" in2="BackgroundImageFix" result="shape"/>
<feGaussianBlur stdDeviation="3.125" result="effect1_foregroundBlur_14_1078"/>
</filter>
<filter id="filter1_f_14_1078" x="4.91667" y="4.91667" width="54.1667" height="54.1667" filterUnits="userSpaceOnUse" color-interpolation-filters="sRGB">
<feFlood flood-opacity="0" result="BackgroundImageFix"/>
<feBlend mode="normal" in="SourceGraphic" in2="BackgroundImageFix" result="shape"/>
<feGaussianBlur stdDeviation="1.04167" result="effect1_foregroundBlur_14_1078"/>
</filter>
<filter id="filter2_ddi_14_1078" x="4.29167" y="6.375" width="55.4167" height="55.4167" filterUnits="userSpaceOnUse" color-interpolation-filters="sRGB">
<feFlood flood-opacity="0" result="BackgroundImageFix"/>
<feColorMatrix in="SourceAlpha" type="matrix" values="0 0 0 0 0 0 0 0 0 0 0 0 0 0 0 0 0 0 127 0" result="hardAlpha"/>
<feOffset dy="1.35417"/>
<feGaussianBlur stdDeviation="0.520833"/>
<feColorMatrix type="matrix" values="0 0 0 0 0.15 0 0 0 0 0 0 0 0 0 0 0 0 0 0.7 0"/>
<feBlend mode="multiply" in2="BackgroundImageFix" result="effect1_dropShadow_14_1078"/>
<feColorMatrix in="SourceAlpha" type="matrix" values="0 0 0 0 0 0 0 0 0 0 0 0 0 0 0 0 0 0 127 0" result="hardAlpha"/>
<feOffset dy="2.08333"/>
<feGaussianBlur stdDeviation="1.35417"/>
<feColorMatrix type="matrix" values="0 0 0 0 0.8 0 0 0 0 0.19 0 0 0 0 0.19 0 0 0 1 0"/>
<feBlend mode="color-dodge" in2="effect1_dropShadow_14_1078" result="effect2_dropShadow_14_1078"/>
<feBlend mode="normal" in="SourceGraphic" in2="effect2_dropShadow_14_1078" result="shape"/>
<feColorMatrix in="SourceAlpha" type="matrix" values="0 0 0 0 0 0 0 0 0 0 0 0 0 0 0 0 0 0 127 0" result="hardAlpha"/>
<feOffset dx="-0.135417" dy="0.270833"/>
<feGaussianBlur stdDeviation="0.0677083"/>
<feComposite in2="hardAlpha" operator="arithmetic" k2="-1" k3="1"/>
<feColorMatrix type="matrix" values="0 0 0 0 1 0 0 0 0 1 0 0 0 0 1 0 0 0 0.5 0"/>
<feBlend mode="normal" in2="shape" result="effect3_innerShadow_14_1078"/>
</filter>
<filter id="filter3_f_14_1078" x="6.79167" y="6.79167" width="50.4167" height="50.4167" filterUnits="userSpaceOnUse" color-interpolation-filters="sRGB">
<feFlood flood-opacity="0" result="BackgroundImageFix"/>
<feBlend mode="normal" in="SourceGraphic" in2="BackgroundImageFix" result="shape"/>
<feGaussianBlur stdDeviation="0.104167" result="effect1_foregroundBlur_14_1078"/>
</filter>
<filter id="filter4_f_14_1078" x="6.86111" y="6.86111" width="50.2778" height="50.2778" filterUnits="userSpaceOnUse" color-interpolation-filters="sRGB">
<feFlood flood-opacity="0" result="BackgroundImageFix"/>
<feBlend mode="normal" in="SourceGraphic" in2="BackgroundImageFix" result="shape"/>
<feGaussianBlur stdDeviation="0.0694444" result="effect1_foregroundBlur_14_1078"/>
</filter>
</defs>
</svg>
