<svg width="64" height="64" viewBox="0 0 64 64" fill="none" xmlns="http://www.w3.org/2000/svg">
<g style="mix-blend-mode:hard-light" filter="url(#filter0_f_14_1071)">
<mask id="path-1-inside-1_14_1071" fill="white">
<path d="M57 32C57 45.8071 45.8071 57 32 57C18.1929 57 7 45.8071 7 32C7 18.1929 18.1929 7 32 7C45.8071 7 57 18.1929 57 32ZM14.5 32C14.5 41.665 22.335 49.5 32 49.5C41.665 49.5 49.5 41.665 49.5 32C49.5 22.335 41.665 14.5 32 14.5C22.335 14.5 14.5 22.335 14.5 32Z"/>
</mask>
<path d="M57 32C57 45.8071 45.8071 57 32 57C18.1929 57 7 45.8071 7 32C7 18.1929 18.1929 7 32 7C45.8071 7 57 18.1929 57 32ZM14.5 32C14.5 41.665 22.335 49.5 32 49.5C41.665 49.5 49.5 41.665 49.5 32C49.5 22.335 41.665 14.5 32 14.5C22.335 14.5 14.5 22.335 14.5 32Z" stroke="#0094FF" stroke-width="2.70833" mask="url(#path-1-inside-1_14_1071)"/>
</g>
<g style="mix-blend-mode:hard-light" filter="url(#filter1_f_14_1071)">
<mask id="path-2-inside-2_14_1071" fill="white">
<path d="M57 32C57 45.8071 45.8071 57 32 57C18.1929 57 7 45.8071 7 32C7 18.1929 18.1929 7 32 7C45.8071 7 57 18.1929 57 32ZM14.5 32C14.5 41.665 22.335 49.5 32 49.5C41.665 49.5 49.5 41.665 49.5 32C49.5 22.335 41.665 14.5 32 14.5C22.335 14.5 14.5 22.335 14.5 32Z"/>
</mask>
<path d="M57 32C57 45.8071 45.8071 57 32 57C18.1929 57 7 45.8071 7 32C7 18.1929 18.1929 7 32 7C45.8071 7 57 18.1929 57 32ZM14.5 32C14.5 41.665 22.335 49.5 32 49.5C41.665 49.5 49.5 41.665 49.5 32C49.5 22.335 41.665 14.5 32 14.5C22.335 14.5 14.5 22.335 14.5 32Z" stroke="#0094FF" stroke-width="3.54167" mask="url(#path-2-inside-2_14_1071)"/>
</g>
<g style="mix-blend-mode:hard-light" filter="url(#filter2_ddi_14_1071)">
<mask id="path-3-inside-3_14_1071" fill="white">
<path d="M57 32C57 45.8071 45.8071 57 32 57C18.1929 57 7 45.8071 7 32C7 18.1929 18.1929 7 32 7C45.8071 7 57 18.1929 57 32ZM14.5 32C14.5 41.665 22.335 49.5 32 49.5C41.665 49.5 49.5 41.665 49.5 32C49.5 22.335 41.665 14.5 32 14.5C22.335 14.5 14.5 22.335 14.5 32Z"/>
</mask>
<path d="M57 32C57 45.8071 45.8071 57 32 57C18.1929 57 7 45.8071 7 32C7 18.1929 18.1929 7 32 7C45.8071 7 57 18.1929 57 32ZM14.5 32C14.5 41.665 22.335 49.5 32 49.5C41.665 49.5 49.5 41.665 49.5 32C49.5 22.335 41.665 14.5 32 14.5C22.335 14.5 14.5 22.335 14.5 32Z" stroke="#00B3FF" stroke-opacity="0.2" stroke-width="2.70833" mask="url(#path-3-inside-3_14_1071)"/>
</g>
<g filter="url(#filter3_f_14_1071)">
<mask id="path-4-inside-4_14_1071" fill="white">
<path d="M57 32C57 45.8071 45.8071 57 32 57C18.1929 57 7 45.8071 7 32C7 18.1929 18.1929 7 32 7C45.8071 7 57 18.1929 57 32ZM14.5 32C14.5 41.665 22.335 49.5 32 49.5C41.665 49.5 49.5 41.665 49.5 32C49.5 22.335 41.665 14.5 32 14.5C22.335 14.5 14.5 22.335 14.5 32Z"/>
</mask>
<path d="M57 32C57 45.8071 45.8071 57 32 57C18.1929 57 7 45.8071 7 32C7 18.1929 18.1929 7 32 7C45.8071 7 57 18.1929 57 32ZM14.5 32C14.5 41.665 22.335 49.5 32 49.5C41.665 49.5 49.5 41.665 49.5 32C49.5 22.335 41.665 14.5 32 14.5C22.335 14.5 14.5 22.335 14.5 32Z" stroke="#82D9FF" stroke-width="1.66667" mask="url(#path-4-inside-4_14_1071)"/>
</g>
<g filter="url(#filter4_f_14_1071)">
<mask id="path-5-inside-5_14_1071" fill="white">
<path d="M57 32C57 45.8071 45.8071 57 32 57C18.1929 57 7 45.8071 7 32C7 18.1929 18.1929 7 32 7C45.8071 7 57 18.1929 57 32ZM14.5 32C14.5 41.665 22.335 49.5 32 49.5C41.665 49.5 49.5 41.665 49.5 32C49.5 22.335 41.665 14.5 32 14.5C22.335 14.5 14.5 22.335 14.5 32Z"/>
</mask>
<path d="M57 32C57 45.8071 45.8071 57 32 57C18.1929 57 7 45.8071 7 32C7 18.1929 18.1929 7 32 7C45.8071 7 57 18.1929 57 32ZM14.5 32C14.5 41.665 22.335 49.5 32 49.5C41.665 49.5 49.5 41.665 49.5 32C49.5 22.335 41.665 14.5 32 14.5C22.335 14.5 14.5 22.335 14.5 32Z" stroke="white" stroke-width="0.833333" mask="url(#path-5-inside-5_14_1071)"/>
</g>
<defs>
<filter id="filter0_f_14_1071" x="0.750002" y="0.750002" width="62.5" height="62.5" filterUnits="userSpaceOnUse" color-interpolation-filters="sRGB">
<feFlood flood-opacity="0" result="BackgroundImageFix"/>
<feBlend mode="normal" in="SourceGraphic" in2="BackgroundImageFix" result="shape"/>
<feGaussianBlur stdDeviation="3.125" result="effect1_foregroundBlur_14_1071"/>
</filter>
<filter id="filter1_f_14_1071" x="4.91667" y="4.91667" width="54.1666" height="54.1667" filterUnits="userSpaceOnUse" color-interpolation-filters="sRGB">
<feFlood flood-opacity="0" result="BackgroundImageFix"/>
<feBlend mode="normal" in="SourceGraphic" in2="BackgroundImageFix" result="shape"/>
<feGaussianBlur stdDeviation="1.04167" result="effect1_foregroundBlur_14_1071"/>
</filter>
<filter id="filter2_ddi_14_1071" x="4.29167" y="6.375" width="55.4166" height="55.4167" filterUnits="userSpaceOnUse" color-interpolation-filters="sRGB">
<feFlood flood-opacity="0" result="BackgroundImageFix"/>
<feColorMatrix in="SourceAlpha" type="matrix" values="0 0 0 0 0 0 0 0 0 0 0 0 0 0 0 0 0 0 127 0" result="hardAlpha"/>
<feOffset dy="1.35417"/>
<feGaussianBlur stdDeviation="0.520833"/>
<feColorMatrix type="matrix" values="0 0 0 0 0 0 0 0 0 0.051 0 0 0 0 0.082 0 0 0 0.7 0"/>
<feBlend mode="multiply" in2="BackgroundImageFix" result="effect1_dropShadow_14_1071"/>
<feColorMatrix in="SourceAlpha" type="matrix" values="0 0 0 0 0 0 0 0 0 0 0 0 0 0 0 0 0 0 127 0" result="hardAlpha"/>
<feOffset dy="2.08333"/>
<feGaussianBlur stdDeviation="1.35417"/>
<feColorMatrix type="matrix" values="0 0 0 0 0 0 0 0 0 0.4 0 0 0 0 1 0 0 0 1 0"/>
<feBlend mode="color-dodge" in2="effect1_dropShadow_14_1071" result="effect2_dropShadow_14_1071"/>
<feBlend mode="normal" in="SourceGraphic" in2="effect2_dropShadow_14_1071" result="shape"/>
<feColorMatrix in="SourceAlpha" type="matrix" values="0 0 0 0 0 0 0 0 0 0 0 0 0 0 0 0 0 0 127 0" result="hardAlpha"/>
<feOffset dx="-0.135417" dy="0.270833"/>
<feGaussianBlur stdDeviation="0.0677083"/>
<feComposite in2="hardAlpha" operator="arithmetic" k2="-1" k3="1"/>
<feColorMatrix type="matrix" values="0 0 0 0 1 0 0 0 0 1 0 0 0 0 1 0 0 0 0.5 0"/>
<feBlend mode="normal" in2="shape" result="effect3_innerShadow_14_1071"/>
</filter>
<filter id="filter3_f_14_1071" x="6.79167" y="6.79167" width="50.4166" height="50.4167" filterUnits="userSpaceOnUse" color-interpolation-filters="sRGB">
<feFlood flood-opacity="0" result="BackgroundImageFix"/>
<feBlend mode="normal" in="SourceGraphic" in2="BackgroundImageFix" result="shape"/>
<feGaussianBlur stdDeviation="0.104167" result="effect1_foregroundBlur_14_1071"/>
</filter>
<filter id="filter4_f_14_1071" x="6.86111" y="6.86111" width="50.2777" height="50.2778" filterUnits="userSpaceOnUse" color-interpolation-filters="sRGB">
<feFlood flood-opacity="0" result="BackgroundImageFix"/>
<feBlend mode="normal" in="SourceGraphic" in2="BackgroundImageFix" result="shape"/>
<feGaussianBlur stdDeviation="0.0694444" result="effect1_foregroundBlur_14_1071"/>
</filter>
</defs>
</svg>
